<?xml version="1.0" standalone="no"?>
<!DOCTYPE svg PUBLIC "-//W3C//DTD SVG 20010904//EN"
 "http://www.w3.org/TR/2001/REC-SVG-20010904/DTD/svg10.dtd">
<svg version="1.0" xmlns="http://www.w3.org/2000/svg"
 width="3289.000000pt" height="3289.000000pt" viewBox="0 0 3289.000000 3289.000000"
 preserveAspectRatio="xMidYMid meet">
<metadata>
Created by potrace 1.14, written by Peter Selinger 2001-2017
</metadata>
<g transform="translate(0.000000,3289.000000) scale(0.100000,-0.100000)"
fill="#000000" stroke="none">
<path d="M0 21189 l0 -389 16443 0 16442 0 0 388 0 387 -16442 1 -16443 2 0
-389z"/>
<path d="M15520 20319 c-30 -4 -77 -10 -105 -14 -389 -51 -767 -257 -981 -535
-156 -203 -246 -425 -289 -715 -4 -22 -8 -47 -10 -55 -2 -8 -7 -46 -11 -85 -3
-38 -8 -77 -9 -86 -20 -103 -28 -782 -12 -964 4 -49 9 -108 11 -130 2 -23 6
-54 9 -70 4 -17 9 -48 12 -70 45 -312 178 -653 341 -872 108 -144 398 -414
830 -770 356 -293 627 -545 701 -654 56 -81 100 -217 119 -364 3 -22 7 -51 10
-65 17 -98 24 -498 11 -629 -20 -213 -101 -360 -214 -395 -58 -17 -151 -12
-196 10 -86 43 -111 91 -142 269 -12 71 -18 301 -19 770 l-1 500 -710 1 c-390
0 -714 -1 -720 -3 -22 -7 -6 -920 19 -1163 4 -36 9 -83 11 -105 11 -105 17
-143 26 -185 5 -25 11 -58 13 -75 7 -62 51 -232 82 -318 86 -242 250 -459 475
-628 53 -39 224 -149 233 -149 3 0 38 -16 78 -34 77 -37 224 -90 274 -100 16
-3 49 -10 74 -16 158 -36 246 -44 470 -45 176 0 278 6 350 20 13 2 42 7 65 10
53 8 179 40 235 60 25 9 54 18 65 21 10 2 33 10 50 18 16 7 55 25 85 39 290
131 542 355 680 601 50 91 120 304 135 416 4 25 10 63 15 85 5 22 12 69 15
105 4 36 9 76 10 90 21 168 28 862 12 1060 -4 52 -9 120 -12 150 -7 89 -28
258 -41 325 -12 65 -17 89 -35 175 -41 191 -157 487 -218 555 -10 11 -21 27
-24 35 -3 8 -45 65 -93 125 -133 165 -413 439 -623 611 -13 10 -28 24 -35 29
-35 32 -284 229 -429 339 -193 146 -215 164 -318 266 -85 85 -116 124 -151
195 -67 132 -93 292 -93 575 0 234 13 321 65 435 47 102 127 156 225 150 111
-6 168 -59 195 -179 5 -22 12 -54 16 -71 3 -16 9 -223 11 -460 3 -236 6 -432
8 -434 3 -2 1152 -4 1385 -2 l55 1 -1 222 c-2 234 -11 535 -19 628 -2 30 -7
87 -10 125 -10 118 -17 169 -44 325 -19 113 -59 243 -102 335 -162 347 -581
633 -1069 729 -69 13 -150 27 -180 31 -79 10 -495 13 -560 4z"/>
<path d="M30829 20326 c-2 -2 -34 -6 -71 -10 -272 -25 -544 -120 -768 -267
-115 -76 -285 -243 -354 -347 -54 -81 -138 -247 -154 -302 -40 -135 -52 -181
-57 -211 -3 -19 -8 -41 -11 -50 -2 -10 -6 -30 -9 -45 -2 -16 -8 -58 -14 -94
-6 -36 -13 -90 -16 -120 -4 -30 -8 -71 -11 -90 -28 -232 -22 -888 9 -1090 3
-19 9 -57 12 -85 4 -27 11 -66 15 -85 5 -19 11 -51 14 -70 28 -180 154 -493
272 -673 75 -115 267 -313 484 -502 69 -59 139 -120 155 -134 17 -15 100 -84
185 -155 502 -416 735 -641 793 -768 29 -63 63 -185 72 -254 4 -27 8 -56 10
-64 18 -68 27 -588 13 -700 -24 -181 -87 -303 -182 -353 -58 -30 -165 -29
-228 2 -45 22 -87 70 -107 124 -13 34 -16 50 -37 182 -4 22 -8 297 -10 610 -2
314 -3 581 -4 595 l0 25 -721 0 -721 0 5 -475 c4 -261 9 -497 11 -525 5 -47
10 -95 22 -240 5 -55 47 -324 58 -370 2 -11 9 -42 15 -70 34 -150 116 -341
197 -457 52 -75 76 -104 152 -181 268 -275 606 -435 1042 -493 73 -10 425 -11
520 -2 138 14 276 44 412 88 96 32 331 141 355 166 8 8 18 14 23 14 10 0 159
110 208 153 177 159 288 324 352 524 32 100 73 283 85 383 3 30 8 71 11 90 32
257 37 963 9 1195 -2 17 -7 59 -10 95 -5 61 -11 110 -20 170 -2 14 -9 61 -15
105 -7 44 -19 109 -27 145 -8 36 -16 72 -18 80 -35 174 -161 462 -252 578
-158 204 -242 295 -482 522 -102 96 -408 348 -596 489 -140 105 -124 93 -238
184 -195 156 -303 285 -347 417 -42 125 -64 302 -63 515 1 373 89 560 266 570
117 6 200 -59 221 -175 3 -19 8 -46 11 -60 13 -57 19 -254 19 -572 l1 -338 25
-1 c30 0 1353 0 1392 1 l27 0 -4 343 c-2 188 -7 378 -9 422 -11 151 -17 230
-22 270 -2 22 -7 56 -9 75 -15 121 -36 238 -57 315 -6 22 -12 45 -14 50 -7 34
-40 119 -66 170 -145 295 -474 549 -865 669 -129 39 -186 52 -323 71 -25 4
-56 9 -70 12 -28 5 -485 14 -491 9z"/>
<path d="M4 20171 c-2 -2 -4 -1679 -4 -3725 l0 -3722 1048 2 c1090 1 1208 4
1477 29 171 16 334 46 437 79 248 80 430 279 527 576 34 105 76 307 87 415 3
39 8 78 10 88 19 103 28 1444 11 1607 -4 41 -10 95 -13 120 -39 380 -160 670
-345 830 -115 100 -296 200 -456 252 -40 12 -73 26 -73 29 0 3 27 13 60 22 33
10 105 37 160 61 225 99 357 211 435 369 45 92 88 242 101 347 3 30 8 57 9 60
25 43 25 834 1 1005 -3 17 -7 55 -10 85 -8 85 -16 138 -32 225 -9 44 -17 91
-20 105 -19 102 -93 330 -115 354 -5 6 -9 16 -9 23 0 7 -18 43 -40 79 -22 36
-40 68 -40 70 0 3 -31 46 -69 97 -79 105 -180 205 -268 265 -54 36 -196 110
-234 121 -8 2 -50 15 -94 28 -86 26 -236 57 -325 68 -30 3 -66 8 -80 10 -38 5
-145 15 -245 21 -105 7 -1884 12 -1891 5z m1780 -1292 c113 -20 160 -58 210
-172 48 -110 61 -230 60 -577 0 -230 -9 -490 -18 -535 -2 -11 -7 -45 -11 -75
-15 -123 -53 -193 -125 -230 -56 -29 -112 -39 -235 -42 l-110 -3 -1 827 -1
827 86 -5 c47 -2 113 -9 145 -15z m-24 -2815 c58 -9 153 -45 188 -71 59 -44
82 -120 101 -328 12 -143 6 -1206 -8 -1300 -25 -161 -53 -224 -122 -275 -47
-33 -145 -66 -229 -75 -30 -3 -74 -8 -96 -11 l-42 -5 0 1042 0 1042 87 -7 c47
-3 102 -9 121 -12z"/>
<path d="M4605 20170 c-4 -7 -14 -76 -20 -150 -4 -36 -8 -76 -10 -90 -2 -14
-6 -56 -10 -95 -3 -38 -7 -83 -10 -100 -2 -16 -7 -50 -9 -75 -6 -49 -33 -314
-41 -395 -3 -27 -8 -66 -10 -85 -3 -19 -7 -64 -10 -100 -3 -35 -7 -76 -9 -90
-3 -14 -7 -56 -11 -95 -3 -38 -8 -81 -10 -95 -4 -27 -12 -105 -20 -190 -3 -30
-8 -71 -10 -90 -5 -40 -12 -111 -20 -190 -3 -30 -7 -71 -10 -90 -2 -19 -7 -62
-10 -95 -3 -33 -8 -80 -11 -105 -2 -25 -7 -67 -10 -95 -2 -27 -7 -61 -9 -75
-2 -14 -7 -59 -10 -100 -4 -41 -8 -86 -10 -100 -2 -14 -7 -54 -10 -90 -4 -36
-8 -83 -11 -105 -2 -22 -6 -62 -9 -90 -3 -27 -8 -70 -11 -95 -2 -25 -6 -68 -9
-95 -2 -28 -6 -64 -9 -80 -2 -17 -8 -63 -11 -103 -4 -41 -8 -81 -10 -90 -1 -9
-6 -53 -10 -96 -4 -43 -8 -86 -10 -95 -1 -9 -6 -50 -10 -91 -3 -41 -8 -88 -10
-105 -2 -16 -7 -57 -10 -90 -3 -33 -7 -76 -10 -95 -6 -52 -14 -128 -19 -185
-8 -74 -17 -157 -21 -185 -2 -14 -6 -56 -10 -95 -3 -38 -8 -81 -10 -95 -2 -14
-6 -56 -10 -95 -3 -38 -12 -126 -20 -195 -8 -69 -17 -154 -20 -190 -3 -36 -8
-81 -10 -100 -6 -44 -17 -151 -30 -275 -2 -22 -9 -85 -15 -140 -12 -111 -17
-162 -25 -250 -3 -33 -8 -71 -10 -85 -2 -14 -7 -54 -10 -90 -3 -36 -10 -99
-15 -140 -5 -41 -12 -104 -15 -140 -6 -66 -9 -97 -20 -185 -3 -27 -7 -73 -10
-100 -2 -28 -6 -64 -9 -80 -2 -17 -7 -61 -11 -100 -3 -38 -8 -81 -10 -95 -2
-14 -6 -56 -10 -95 -3 -38 -8 -83 -10 -100 -2 -16 -7 -57 -10 -90 -3 -33 -8
-78 -10 -100 -7 -60 -15 -133 -21 -195 -2 -30 -7 -71 -9 -90 -3 -20 -7 -58
-10 -85 l-4 -50 801 0 c704 0 801 2 803 15 1 8 5 62 9 120 4 58 9 128 11 155
2 28 7 91 10 140 5 88 9 146 20 290 3 39 8 111 11 160 3 50 7 106 9 125 3 43
17 255 20 290 0 14 4 30 7 36 6 10 532 14 541 4 6 -6 14 -104 23 -260 3 -63 7
-131 9 -150 2 -19 6 -91 10 -160 4 -69 8 -141 10 -160 2 -19 6 -91 10 -160 3
-69 8 -141 10 -160 2 -19 6 -89 10 -155 4 -66 8 -122 10 -125 3 -4 1552 -5
1578 -1 4 0 5 13 3 29 -6 35 -24 179 -31 257 -4 33 -8 71 -10 85 -2 14 -7 48
-10 75 -3 28 -10 84 -15 125 -5 41 -12 100 -15 130 -4 30 -8 66 -10 80 -2 14
-9 70 -15 125 -11 105 -19 163 -25 205 -2 14 -7 57 -10 95 -4 39 -8 77 -10 85
-3 8 -7 40 -10 70 -3 30 -7 71 -10 90 -2 19 -7 60 -10 90 -3 30 -8 66 -10 80
-2 14 -7 50 -10 80 -7 63 -13 119 -20 170 -15 116 -17 128 -31 265 -3 28 -7
61 -9 75 -2 14 -6 50 -10 80 -11 98 -15 129 -20 168 -5 38 -9 70 -21 177 -3
33 -8 68 -10 78 -2 10 -6 53 -9 95 -4 42 -8 79 -10 82 -2 3 -6 37 -10 75 -3
39 -8 77 -10 85 -2 8 -7 49 -10 90 -4 41 -8 77 -10 80 -2 3 -6 41 -10 85 -4
44 -9 82 -10 85 -2 3 -6 39 -10 80 -4 41 -9 83 -10 92 -2 9 -7 48 -10 85 -4
37 -9 76 -11 87 -2 10 -6 44 -9 75 -4 31 -8 67 -10 81 -2 14 -7 52 -10 85 -4
33 -8 71 -10 85 -2 14 -7 52 -10 85 -4 33 -8 71 -10 85 -2 14 -7 52 -10 85 -4
33 -8 71 -10 85 -2 14 -6 50 -10 80 -3 30 -10 91 -16 135 -5 44 -12 96 -14
115 -2 19 -7 60 -10 90 -3 30 -8 66 -10 80 -2 14 -6 50 -10 80 -3 30 -8 72
-10 93 -3 20 -7 54 -10 75 -2 20 -7 62 -10 92 -4 30 -8 66 -10 80 -2 14 -6 48
-9 75 -3 28 -11 91 -16 140 -6 50 -13 108 -16 130 -2 22 -6 56 -9 75 -5 41
-11 94 -20 170 -4 30 -9 67 -11 83 -2 15 -6 49 -8 75 -3 26 -7 70 -11 97 -14
114 -25 203 -30 250 -3 28 -7 64 -10 80 -2 17 -7 50 -9 75 -7 59 -25 216 -31
260 -2 19 -7 58 -10 85 -6 59 -14 128 -20 170 -8 64 -15 122 -20 168 -3 26 -8
68 -11 95 -4 26 -8 56 -9 67 -1 11 -3 22 -4 25 -1 7 -2232 7 -2236 0z m1189
-1830 c4 -69 8 -141 10 -160 2 -19 7 -89 10 -155 4 -66 9 -138 11 -160 3 -22
7 -86 10 -143 3 -57 7 -122 10 -145 2 -23 7 -89 10 -147 3 -57 8 -120 10 -140
2 -19 7 -78 10 -130 5 -91 10 -167 20 -275 2 -27 7 -93 10 -145 4 -52 8 -108
10 -125 2 -16 6 -73 10 -125 4 -52 8 -111 10 -130 2 -19 6 -78 10 -130 4 -52
8 -106 10 -120 2 -14 7 -68 10 -120 4 -52 9 -102 10 -112 2 -9 6 -58 10 -110
3 -51 8 -109 10 -128 2 -19 7 -64 10 -100 3 -36 8 -84 10 -107 5 -43 5 -43
-27 -44 -48 0 -438 0 -471 0 l-29 1 6 98 c4 53 9 120 11 147 2 28 7 88 10 135
3 47 8 105 10 130 2 25 7 74 10 110 3 36 7 90 10 120 8 87 14 159 20 235 3 39
8 86 10 105 5 38 12 116 20 220 3 35 7 76 10 90 2 14 7 63 10 109 4 47 8 92
10 100 2 9 6 54 10 101 3 47 8 92 10 100 2 8 7 53 10 99 4 47 8 92 10 102 2
10 6 51 9 91 4 40 8 84 11 97 2 14 7 54 10 90 3 36 7 77 9 91 3 14 8 61 11
104 4 43 8 86 10 96 2 9 6 50 9 91 4 41 9 85 11 99 3 14 7 50 10 80 8 103 26
242 30 238 2 -2 6 -59 9 -128z"/>
<path d="M7989 20120 c0 -61 0 -7356 1 -7380 0 -13 90 -15 775 -15 l775 0 0
1677 0 1677 28 3 c35 4 189 -19 222 -33 109 -47 144 -86 170 -190 11 -41 22
-103 26 -139 3 -36 8 -81 11 -100 2 -19 6 -676 8 -1460 2 -784 4 -1427 5
-1430 0 -3 324 -5 721 -5 l721 0 -5 1375 c-3 756 -8 1407 -11 1445 -3 39 -8
97 -10 130 -13 154 -47 263 -127 414 -72 136 -131 214 -207 277 -107 88 -264
172 -409 219 -29 10 -53 20 -53 24 0 4 35 13 78 20 268 45 476 175 579 361 73
131 122 363 150 710 16 196 8 843 -12 995 -3 17 -7 57 -10 90 -8 87 -43 277
-66 365 -75 283 -193 501 -367 675 -195 195 -396 271 -817 309 -360 33 -548
38 -1417 40 l-758 2 -1 -56z m1711 -1235 c144 -25 230 -93 266 -209 37 -119
42 -206 39 -636 -1 -223 -5 -414 -7 -425 -6 -22 -21 -118 -19 -122 0 -2 -9
-29 -20 -60 -43 -116 -114 -159 -303 -182 -33 -4 -71 -7 -85 -6 l-26 1 -3 826
-2 827 62 -4 c35 -2 79 -6 98 -10z"/>
<path d="M12049 20150 c0 -33 0 -5311 0 -5327 1 -10 163 -13 774 -13 l774 0 0
2668 c1 1467 -1 2674 -3 2682 -3 13 -96 15 -774 15 l-770 0 -1 -25z"/>
<path d="M17850 19428 l0 -746 408 -1 c224 0 430 0 457 0 l50 -1 -1 -2967 c0
-1633 1 -2973 3 -2978 2 -7 265 -10 776 -10 l772 0 1 2973 c0 1634 4 2975 7
2978 3 4 210 7 459 8 l453 1 2 730 c0 402 -1 737 -3 745 -3 13 -197 15 -1694
15 l-1690 0 0 -747z"/>
<path d="M25421 20165 c-4 -5 -7 -1682 -7 -3725 l1 -3715 768 0 c505 0 771 3
776 10 4 5 7 761 7 1679 l-1 1668 85 -5 c160 -9 267 -58 308 -140 21 -41 41
-124 56 -232 14 -98 18 -454 19 -1675 l2 -1305 720 0 720 0 -1 1180 c0 1538
-7 1781 -54 1955 -33 124 -137 323 -221 424 -24 29 -73 76 -109 105 -70 56
-288 168 -382 197 -32 10 -58 20 -58 24 0 3 35 12 78 19 226 38 439 150 535
282 100 138 164 372 193 713 22 264 22 802 -1 1021 -2 22 -6 65 -10 95 -3 30
-7 66 -10 80 -2 14 -6 45 -9 70 -9 69 -16 111 -28 155 -5 22 -12 51 -14 65
-15 87 -78 264 -129 365 -123 244 -281 417 -474 518 -83 44 -216 89 -298 102
-39 5 -66 10 -113 20 -22 4 -62 8 -190 20 -19 2 -69 6 -110 10 -241 21 -526
28 -1313 29 -489 1 -731 -2 -736 -9z m1699 -1279 c84 -12 164 -49 210 -98 46
-49 78 -140 95 -273 7 -55 8 -805 1 -845 -3 -14 -7 -50 -11 -81 -25 -236 -93
-309 -310 -335 -115 -13 -125 -13 -133 4 -6 13 -9 1593 -3 1636 1 7 65 4 151
-8z"/>
<path d="M22852 20122 c-7 -26 -19 -69 -27 -97 -8 -27 -76 -277 -151 -555 -75
-278 -156 -579 -180 -670 -25 -91 -47 -172 -49 -180 -21 -82 -61 -231 -143
-535 l-97 -360 -120 -33 c-66 -18 -178 -48 -250 -67 -71 -18 -204 -54 -295
-78 -91 -24 -307 -81 -480 -127 -173 -46 -319 -87 -324 -91 -5 -5 -5 -13 1
-21 9 -11 130 -226 233 -413 18 -33 36 -64 40 -70 7 -9 30 -52 101 -182 17
-32 39 -69 47 -83 9 -14 26 -43 37 -65 26 -49 47 -87 240 -430 83 -148 198
-353 255 -454 71 -127 103 -194 102 -215 0 -16 -6 -77 -11 -135 -6 -58 -14
-133 -17 -166 -3 -33 -7 -78 -9 -100 -2 -22 -6 -74 -10 -115 -3 -41 -8 -86
-10 -100 -2 -14 -6 -61 -10 -105 -4 -44 -8 -93 -10 -110 -2 -16 -7 -64 -10
-105 -3 -41 -8 -86 -10 -100 -2 -14 -7 -68 -10 -120 -4 -52 -8 -102 -10 -110
-2 -8 -6 -53 -10 -100 -3 -47 -8 -96 -10 -110 -2 -14 -6 -59 -10 -100 -3 -41
-8 -91 -10 -110 -2 -19 -7 -66 -10 -105 -3 -38 -8 -88 -10 -110 -9 -90 -15
-153 -20 -207 -3 -32 -7 -84 -10 -115 -8 -85 -15 -163 -20 -208 -2 -22 -7 -76
-11 -120 -3 -44 -8 -88 -10 -97 -1 -10 -1 -18 2 -18 3 0 60 54 127 119 67 66
151 147 187 181 36 34 122 117 191 184 69 66 219 211 334 321 114 110 269 259
343 331 l136 131 84 -81 c46 -45 114 -110 151 -146 38 -36 164 -157 280 -270
117 -113 246 -236 286 -275 40 -38 170 -164 290 -280 186 -179 237 -223 228
-195 0 3 -4 39 -7 80 -4 41 -9 95 -11 120 -10 94 -15 147 -20 215 -3 39 -8 81
-10 95 -3 14 -7 61 -10 105 -3 44 -7 98 -10 120 -2 22 -7 66 -10 98 -9 103
-15 161 -20 222 -3 33 -8 78 -10 100 -2 22 -7 69 -10 105 -11 134 -16 186 -20
215 -2 17 -7 64 -10 105 -3 41 -8 98 -11 125 -8 79 -13 135 -19 200 -10 107
-16 169 -20 210 -3 22 -7 69 -10 105 -11 132 -16 186 -20 220 -2 19 -7 72 -10
118 -4 46 -8 91 -9 100 -2 9 16 48 39 86 23 39 55 96 72 126 16 30 64 116 105
190 81 144 128 228 345 615 49 88 103 185 120 215 17 30 60 107 95 170 36 63
77 138 93 165 145 260 184 332 187 344 2 9 -8 17 -27 21 -16 4 -84 22 -150 40
-66 17 -127 33 -135 35 -8 3 -67 18 -130 35 -63 17 -173 46 -245 66 -71 19
-155 41 -185 49 -30 9 -174 47 -320 86 -146 38 -268 73 -272 77 -3 4 -32 104
-63 222 -31 118 -93 348 -137 510 -44 162 -81 302 -83 310 -2 8 -20 76 -40
150 -20 74 -38 142 -40 150 -7 27 -63 233 -90 330 -14 52 -28 103 -30 112 -2
10 -15 59 -29 110 -45 166 -57 212 -76 283 -47 180 -69 257 -72 261 -2 2 -10
-18 -16 -44z m53 -1771 c4 -57 8 -127 10 -155 10 -169 17 -275 20 -306 2 -19
7 -87 10 -150 4 -63 8 -131 10 -150 2 -19 6 -84 10 -145 4 -60 8 -121 10 -135
2 -14 7 -79 11 -145 3 -66 8 -128 10 -137 1 -10 5 -68 9 -130 3 -62 7 -124 10
-138 2 -14 7 -70 10 -125 4 -55 8 -116 10 -135 2 -19 6 -71 9 -115 4 -44 9
-106 11 -137 3 -32 7 -84 10 -115 3 -32 7 -83 9 -113 14 -159 17 -199 21 -240
2 -25 7 -76 10 -115 6 -75 11 -126 21 -217 5 -52 4 -58 -13 -59 -10 0 -128 -1
-263 -1 l-245 -1 1 49 c0 46 10 200 19 309 4 44 7 90 20 255 2 25 6 79 10 120
3 41 8 93 10 115 3 22 7 70 10 108 3 37 7 86 9 110 7 64 15 144 21 222 3 39 8
86 10 105 3 19 7 60 10 90 3 30 7 75 10 100 3 25 7 68 9 95 12 127 18 182 21
205 2 14 7 61 10 105 4 44 9 89 11 100 2 11 6 52 9 90 3 39 7 79 9 90 2 11 7
54 11 95 3 41 8 86 10 100 2 14 7 57 10 96 3 39 7 80 9 90 2 10 7 51 10 89 4
39 9 79 11 90 2 11 7 52 10 90 6 83 16 157 20 153 2 -2 6 -50 10 -107z"/>
<path d="M12049 14563 c0 -35 0 -1826 0 -1833 1 -3 348 -5 771 -5 677 0 771 2
774 15 2 8 4 428 3 933 l0 917 -774 0 -773 0 -1 -27z"/>
<path d="M0 11711 l0 -389 16440 0 c9042 0 16441 3 16441 7 1 3 2 178 3 389
l1 382 -16442 0 -16443 0 0 -389z"/>
</g>
</svg>
